<svg width="100" height="32" viewBox="0 0 100 32" fill="none" xmlns="http://www.w3.org/2000/svg">
<g clip-path="url(#clip0_2111_3728)">
<path d="M49.9368 16.004L48.3508 25H47.1678L48.3508 18.292L44.1778 25H43.3458L41.5258 18.318L40.3428 25H39.1598L40.7588 16.004H42.0328L44.0478 23.44L48.6758 16.004H49.9368ZM52.983 16.862L52.437 19.969H55.726L55.57 20.879H52.281L51.709 24.064H55.401L55.232 25H50.357L51.969 15.926H56.831L56.662 16.862H52.983ZM57.3861 20.463C57.5421 19.579 57.8801 18.786 58.4001 18.084C58.9287 17.3733 59.5744 16.823 60.3371 16.433C61.0997 16.0343 61.9014 15.835 62.7421 15.835C63.7127 15.835 64.5231 16.0733 65.1731 16.55C65.8317 17.0267 66.2564 17.6983 66.4471 18.565H65.0301C64.8741 18.0363 64.5794 17.629 64.1461 17.343C63.7214 17.0483 63.1927 16.901 62.5601 16.901C61.9274 16.901 61.3294 17.0483 60.7661 17.343C60.2114 17.629 59.7434 18.045 59.3621 18.591C58.9807 19.1283 58.7251 19.7523 58.5951 20.463C58.5517 20.6883 58.5301 20.9483 58.5301 21.243C58.5301 22.0923 58.7814 22.7683 59.2841 23.271C59.7867 23.765 60.4584 24.012 61.2991 24.012C62.1917 24.012 62.9717 23.7477 63.6391 23.219C64.3064 22.6817 64.7657 21.958 65.0171 21.048H61.4031L61.5721 20.112H66.4471L66.2781 21.022C66.0787 21.7673 65.7234 22.452 65.2121 23.076C64.7094 23.6913 64.0984 24.181 63.3791 24.545C62.6684 24.9003 61.9144 25.078 61.1171 25.078C60.3717 25.078 59.7087 24.9263 59.1281 24.623C58.5561 24.311 58.1097 23.8733 57.7891 23.31C57.4684 22.7467 57.3081 22.101 57.3081 21.373C57.3081 21.0783 57.3341 20.775 57.3861 20.463ZM72.8602 22.985H68.8952L67.8162 25H66.5682L71.4302 15.991H72.7952L74.4722 25H73.2242L72.8602 22.985ZM72.6912 22.062L71.8592 17.434L69.3892 22.062H72.6912ZM77.252 24.09H80.424L80.255 25H75.9L77.512 15.939H78.695L77.252 24.09ZM84.3063 15.939L82.6943 25H81.5113L83.1233 15.939H84.3063ZM91.8346 25H90.6516L87.1806 17.785L85.8936 25H84.7106L86.3226 15.926H87.5056L90.9896 23.128L92.2636 15.926H93.4466L91.8346 25ZM96.4772 16.862L95.9312 19.969H99.2202L99.0642 20.879H95.7752L95.2032 24.064H98.8952L98.7262 25H93.8512L95.4632 15.926H100.325L100.156 16.862H96.4772Z" fill="white"/>
<path d="M33.2973 0.0349521C33.7877 4.33918 28.5888 14.5258 26.9212 22.2735C26.4307 30.5228 72.7303 31.2402 100 31.2402C74.6922 33.3442 16.4693 32.9141 16.6215 28.6102C16.8177 23.0626 32.0711 -1.04149 33.2973 0.0349521Z" fill="#FFE600"/>
<path d="M33.2973 12.1109C33.9512 11.4732 36.0262 9.79323 39.3054 9.36098C43.8422 8.76297 33.9103 23.1106 33.2973 23.5888C31.6215 23.9076 28.4907 23.493 29.3736 19.2844C30.2564 15.0758 32.3572 12.7485 33.2973 12.1109Z" fill="white"/>
<path d="M0.191085 27.1755C4.56437 23.8676 14.6597 17.491 19.8095 15.6976C20.7607 15.3663 19.033 21.7155 15.3954 25.5016C13.7278 27.0319 -1.89341 28.7521 0.191085 27.1755Z" fill="white"/>
</g>
<defs>
<clipPath id="clip0_2111_3728">
<rect width="100" height="32" fill="white"/>
</clipPath>
</defs>
</svg>
