<svg width="100" height="32" viewBox="0 0 100 32" fill="none" xmlns="http://www.w3.org/2000/svg">
<g clip-path="url(#clip0_2111_3728)">
<path d="M49.6596 15.965L48.0606 25H46.5786L47.6706 18.812L43.8226 25H42.7956L41.1186 18.812L40.0266 25H38.5446L40.1436 15.965H41.7426L43.6666 23.05L48.0736 15.965H49.6596ZM52.8815 17.109L52.4005 19.852H55.5205L55.3255 20.996H52.2055L51.6985 23.843H55.2085L55.0005 25H50.0085L51.6075 15.952H56.5995L56.3915 17.109H52.8815ZM57.1379 20.463C57.2939 19.579 57.6362 18.786 58.1649 18.084C58.7022 17.382 59.3565 16.836 60.1279 16.446C60.9079 16.0473 61.7182 15.848 62.5589 15.848C63.5209 15.848 64.3355 16.0863 65.0029 16.563C65.6789 17.031 66.1079 17.6983 66.2899 18.565H64.5089C64.3442 18.1143 64.0755 17.7763 63.7029 17.551C63.3302 17.317 62.8709 17.2 62.3249 17.2C61.7269 17.2 61.1679 17.3343 60.6479 17.603C60.1365 17.8717 59.7032 18.253 59.3479 18.747C59.0012 19.241 58.7715 19.813 58.6589 20.463C58.6155 20.749 58.5939 20.9917 58.5939 21.191C58.5939 21.971 58.8279 22.5907 59.2959 23.05C59.7639 23.5093 60.3879 23.739 61.1679 23.739C61.9739 23.739 62.6715 23.5137 63.2609 23.063C63.8502 22.6037 64.2662 21.984 64.5089 21.204H61.1159L61.3239 20.047H66.3029L66.0949 21.204C65.8782 21.906 65.5142 22.5517 65.0029 23.141C64.4915 23.7303 63.8805 24.2027 63.1699 24.558C62.4679 24.9047 61.7225 25.078 60.9339 25.078C60.1885 25.078 59.5212 24.922 58.9319 24.61C58.3425 24.298 57.8832 23.8603 57.5539 23.297C57.2245 22.7337 57.0599 22.0837 57.0599 21.347C57.0599 21.0697 57.0859 20.775 57.1379 20.463ZM70.1565 25.091C69.6019 25.091 69.1035 25.0043 68.6615 24.831C68.2195 24.649 67.8685 24.389 67.6085 24.051C67.3485 23.7043 67.2185 23.297 67.2185 22.829C67.2185 22.7683 67.2272 22.66 67.2445 22.504H68.7135C68.6789 22.9027 68.7959 23.2363 69.0645 23.505C69.3332 23.765 69.7189 23.895 70.2215 23.895C70.7589 23.895 71.1792 23.7867 71.4825 23.57C71.7859 23.3447 71.9375 23.024 71.9375 22.608C71.9375 22.3567 71.8595 22.1443 71.7035 21.971C71.5562 21.789 71.3655 21.6373 71.1315 21.516C70.9062 21.3947 70.5899 21.2517 70.1825 21.087C69.6452 20.8617 69.2162 20.658 68.8955 20.476C68.5749 20.294 68.2975 20.0427 68.0635 19.722C67.8382 19.4013 67.7255 18.9983 67.7255 18.513C67.7255 17.9757 67.8642 17.5077 68.1415 17.109C68.4189 16.7017 68.8002 16.3897 69.2855 16.173C69.7795 15.9563 70.3342 15.848 70.9495 15.848C71.5649 15.848 72.0935 15.952 72.5355 16.16C72.9862 16.3593 73.3242 16.6453 73.5495 17.018C73.7835 17.382 73.8875 17.811 73.8615 18.305H72.3015C72.3362 17.9497 72.2279 17.655 71.9765 17.421C71.7252 17.1783 71.3612 17.057 70.8845 17.057C70.3819 17.057 69.9789 17.174 69.6755 17.408C69.3809 17.6333 69.2335 17.941 69.2335 18.331C69.2335 18.5737 69.3072 18.786 69.4545 18.968C69.6105 19.1413 69.8055 19.293 70.0395 19.423C70.2735 19.5443 70.5899 19.6917 70.9885 19.865C71.5259 20.1077 71.9549 20.3243 72.2755 20.515C72.6049 20.7057 72.8865 20.9657 73.1205 21.295C73.3545 21.6157 73.4715 22.0143 73.4715 22.491C73.4715 22.9937 73.3329 23.4443 73.0555 23.843C72.7782 24.233 72.3882 24.5407 71.8855 24.766C71.3829 24.9827 70.8065 25.091 70.1565 25.091ZM76.3528 23.869H79.4078L79.1998 25H74.6628L76.2618 15.965H77.7438L76.3528 23.869ZM83.5201 15.965L81.9211 25H80.4391L82.0381 15.965H83.5201ZM91.2899 25H89.8079L86.5449 18.253L85.3489 25H83.8669L85.4659 15.952H86.9479L90.2239 22.686L91.4069 15.952H92.8889L91.2899 25ZM96.109 17.109L95.628 19.852H98.748L98.553 20.996H95.433L94.926 23.843H98.436L98.228 25H93.236L94.835 15.952H99.827L99.619 17.109H96.109Z" fill="white"/>
<path d="M33.2973 0.0349521C33.7877 4.33918 28.5888 14.5258 26.9212 22.2735C26.4307 30.5228 72.7303 31.2402 100 31.2402C74.6922 33.3442 16.4693 32.9141 16.6215 28.6102C16.8177 23.0626 32.0711 -1.04149 33.2973 0.0349521Z" fill="#FFE600"/>
<path d="M33.2973 12.1109C33.9512 11.4732 36.0262 9.79323 39.3054 9.36098C43.8422 8.76297 33.9103 23.1106 33.2973 23.5888C31.6215 23.9076 28.4907 23.493 29.3736 19.2844C30.2564 15.0758 32.3572 12.7485 33.2973 12.1109Z" fill="white"/>
<path d="M0.191085 27.1755C4.56437 23.8676 14.6597 17.491 19.8095 15.6976C20.7607 15.3663 19.033 21.7155 15.3954 25.5016C13.7278 27.0319 -1.89341 28.7521 0.191085 27.1755Z" fill="white"/>
</g>
<defs>
<clipPath id="clip0_2111_3728">
<rect width="100" height="32" fill="white"/>
</clipPath>
</defs>
</svg>
